<svg xmlns="http://www.w3.org/2000/svg" width="281" height="346" viewBox="1396.8 568.02 280.52 345.91"><path fill="#f2eeea" d="M1428.99 717.03c7-9.78 15.3-18.86 24.8-26.1 5.48-4.2 11.66-7.74 18.43-9.33 7.1-1.67 14.31-.77 21.06 1.9 4.8 1.89 9.4 4.42 13.78 7.24l-.36-11.8-1.17-38.5a175 175 0 0 0-23.37 8.68c-18.3 8.36-35.09 20.1-48.72 34.95a140 140 0 0 0-16.43 21.78 84 84 0 0 0 11.98 11.18"/><path fill="#f2eeea" d="M1457.21 756.4c3.07-4.02 7.76-6.22 12.38-8.05a61 61 0 0 1-16.26-25.82c-.42-1.3 1.62-1.85 2.03-.57a59.4 59.4 0 0 0 14.21 23.42q1.05 1.08 2.25 2.21c.39.04.66.34.76.71 3.63 3.3 8.11 6.3 12.9 4.96 3.5-.98 5.86-3.51 7.2-6.6l-.03-.01c-2.97-1.6-5.47-4-7.74-6.47a41 41 0 0 1-6.14-8.32c-1.57-2.96-2.65-6.34-2.45-9.72.14-2.6 1.26-5.6 3.8-6.76 2.86-1.3 5.61.49 7.36 2.72 1.07 1.36 1.88 2.87 2.72 4.38q1.41 2.54 2.66 5.14c2.55 5.49 4.26 12 2.54 17.91 2.64 1.01 5.46 1.15 8.26-.36 4.12-2.23 6.39-6.53 7-11.03-4.7-2.62-9.2-6.13-12.1-10.57a16 16 0 0 1-2.76-8.41c-.03-2.7 1.13-5.85 4.04-6.56 3.4-.84 6.21 1.87 7.67 4.63a55 55 0 0 1 4.26 10.75 28 28 0 0 1 1.09 8.93c2.71 1.5 5.94 3 9.04 1.88 2.53-.91 4.27-3.4 5.18-5.83 2.19-5.85.86-12.56-1.94-17.97-3.02-5.81-7.86-10.43-13.09-14.26a98 98 0 0 0-16.86-10.14c-5.95-2.73-12.43-4.35-19-3.57-12.62 1.5-23.18 10.4-31.8 19.1a137 137 0 0 0-23.38 31.7c-.65 1.2-2.47.13-1.83-1.07a140 140 0 0 1 8.6-14 87 87 0 0 1-11.9-11.02 130 130 0 0 0-11.62 25.78c-3.15 9.75-5.46 20.22-5.34 30.51.12 9.97 3.16 20.47 10.84 27.26 7.17 6.35 17.1 7.91 26.31 6.47 9.48-1.49 18-6.3 25.8-11.72a58 58 0 0 1-6.08-12.05c-2.04-5.78-2.49-12.47 1.42-17.58"/><path fill="#f2eeea" d="M1493.95 738.96a28 28 0 0 0-2.68-9.75 64 64 0 0 0-4.71-8.8c-1.25-1.89-3.74-4.62-6.16-2.77-2.11 1.63-2.2 4.97-1.82 7.34.97 6.11 5.33 11.34 9.6 15.55a25 25 0 0 0 5.21 4.05c.5-1.82.67-3.75.56-5.62"/><path fill="#f2eeea" d="M1476.36 800.55a38 38 0 0 0 6.85 5.62c2.52 1.53 5.34 2.45 8.31 2.12 3.11-.36 5.98-1.86 8.66-3.4a105 105 0 0 0 15.55-10.92c8.4-7.13 16.5-15.82 19.72-26.55l-.18-.09a40.2 40.2 0 0 1-19.7-30.85 21 21 0 0 1-2.96-1.3 17.4 17.4 0 0 1-3.65 8.23 13.4 13.4 0 0 1-7.18 4.72c-2.4.56-4.85.27-7.12-.57q-.22.5-.49 1.01a14 14 0 0 1-6.6 6.17 11.6 11.6 0 0 1-9.42-.15 27 27 0 0 1-6.83-4.66c-5.13 1.98-10.84 4.38-13.53 9.46-3.25 6.11-.61 13.57 2.32 19.26a84 84 0 0 0 3.51 6.15l.6.93a84 84 0 0 0 12.14 14.82"/><path fill="#24247b" d="M1506.55 777.81q-.58.52-1.75.67-1.18.17-2.59.32t-2.84.55-2.54 1.38q-.75.67-1.19 1.4t-.71 1.38-.53 1.22a3 3 0 0 1-.64.91q-.5.45-1.01.48a2 2 0 0 1-.92-.16q-.41-.2-.74-.5a6 6 0 0 1-.52-.5 4.1 4.1 0 0 1-1.06-3.75q.17-.9.57-1.73l.73-1.55q.33-.72.44-1.34a1.2 1.2 0 0 0-.29-1.05q-.58-.66-1.45-.9a6 6 0 0 0-1.85-.2q-.98.05-2 .2-1.04.17-1.95.29t-1.65.04q-.73-.06-1.14-.5a3.6 3.6 0 0 1-.85-2.02 3 3 0 0 1 .13-1.1q.18-.54.62-.94.45-.4 1.72-1.06 1.26-.66 3.01-1.46 1.77-.8 3.88-1.68a317 317 0 0 1 8.64-3.46 172 172 0 0 1 6.95-2.45q1.29-.42 1.75-.47 1.05-.36 1.82.1a5 5 0 0 1 1.25.96q.37.43.7.89t.47.92q.15.45.08.89-.06.42-.45.77-1.02.92-2.6 1.82-1.59.9-3.24 1.75-1.65.83-3.07 1.59-1.41.75-2.1 1.36-.7.63-.28 1.1.54.6 1.5.82.98.21 2.03.33t1.96.28 1.37.66q.25.3.48.8.21.51.3 1.07t-.01 1.06-.43.81"/><path fill="#f2eeea" d="M1510.8 730.73c-.17-3.53-1.18-6.98-2.44-10.28q-.91-2.4-2-4.74c-.64-1.42-1.35-2.9-2.52-3.96-1.08-.96-2.8-1.62-4.16-.83-1.07.63-1.55 1.92-1.7 3.1-.36 2.6.58 5.36 1.85 7.58 2.5 4.38 6.7 7.56 11 10.13zm-1.59-38.78v.2q1.68 1.14 3.33 2.33a71 71 0 0 1 4.66 3.64l-.62-13.68-2.1-46.38q-3.45.82-6.86 1.78l.2 6.39zm50.49 190.15-1.85-8.27q-7.76-.09-15.5-.2-27.8-.43-55.58-1.3l-1.75 39.6h70.46l4.15-22.61a5.8 5.8 0 0 1 .07-7.23m-23.68-116.77.23-1.05c1.16-5.78.73-11.98-1.99-17.27-2.36-4.6-6.26-8.46-11.2-10.2l-.24-.12a9.3 9.3 0 0 1-5.08.39 38 38 0 0 0 18.28 28.25m-3.57-24.64c.4-1.1 1-2.14 1.98-2.78l-.7-.91c-2.36-3.3-4.25-8.3-1.95-12.13l.16-.25-1.74.14a19 19 0 0 1-1.2 5.06 13.3 13.3 0 0 1-3.87 5.54q1.14.49 2.23 1.13a22 22 0 0 1 5.09 4.2"/><path fill="#f2eeea" d="M1537.35 768.45c-3.46 11.05-11.7 20.06-20.57 27.4.61 2.48 3.08 3.81 5.56 3.72 3.05-.11 5.7-1.98 7.93-3.88 4.52-3.81 8.9-7.76 14.22-10.43a32 32 0 0 1 5.47-2.16 33 33 0 0 1-4.62-4.2c-3.09-3.54-5.04-8.74-2.67-13.2a9.7 9.7 0 0 1 4.58-4.2c-1.52-1.6-2.8-3.4-3.74-5.36-1.62-3.38-2.3-7.5-.82-10.94a36 36 0 0 1-3.48-2.48l-.05.1a5 5 0 0 1-3.44 2.44 26 26 0 0 1 1.81 4.06c2.13 6.14 1.74 12.98-.18 19.13"/><path fill="#24247b" d="M1540.68 598.25c-2.8-2.25-7-1.3-8.18 2.2-1.16 3.44 1.76 6.94 5.33 6.6 1.34-.12 1.35-2.23 0-2.1-2.08.2-3.93-1.5-3.38-3.65a2.98 2.98 0 0 1 4.73-1.56c1.05.85 2.56-.64 1.5-1.5"/><path fill="#f2eeea" d="M1524.54 801.36c-3.65.9-8.14-.42-9.54-4.06q-.97.79-1.96 1.54-1.3 1-2.64 1.96c3.11 4.24 7.17 8.96 12.89 8.83 2.87-.07 5.42-1.67 7.69-3.27 2.31-1.64 4.55-3.38 6.81-5.07 3.98-2.99 8.03-5.92 12.45-8.22 3.97-2.07 9.16-4.64 13.6-2.48 2.31 1.12 2.96 3.25 4.15 5.32.46.8 1.25 1.84 2.3 1.8s1.7-1.2 1.79-2.14c.21-2.14-1.27-4.5-2.62-6.05a15 15 0 0 0-5.25-3.86c-9.6-4.39-20.09 1.28-27.5 7.3-3.74 3.04-7.3 7.2-12.17 8.4"/><path fill="#24247b" d="m1559 904.38 2.64-14.35c9.7.97 19.46.8 29.12-.46q.16.17.38.26l2.24 13.19a211 211 0 0 0-34.38 1.36m-3.03-33.16c-.6-.1-1.7-.18-2.04-.81-.32-.62.24-.86.76-1.05 1.48-.54 3.18-.7 4.74-.97q2.66-.42 5.33-.68a81 81 0 0 1 10.9-.26q.23 0 .4-.07l15.94.08a73 73 0 0 1 6.08 1.27c.44.11 1.65.22 1.95.61.5.67-.78.98-1.23 1.06-3.12.55-6.38.7-9.53 1.01-6.35.61-12.72 1.06-19.1 1q-4.8-.05-9.6-.55a67 67 0 0 1-4.6-.64m8.12-9.83c-2.1-1.44-3.46-3.64-4.42-5.95a54 54 0 0 1-3.63-15.53q.97.55 2.02.91a39 39 0 0 0 10.52 2 85 85 0 0 0 10.97-.14c3.6-.23 7.22-.44 10.8-.96 2.85-.42 6.24-.98 8.78-2.56a57 57 0 0 1-3.14 13.57c-.9 2.47-1.97 4.98-3.66 7.02a12 12 0 0 1-6.14 3.85c-2.53.67-5.19.72-7.79.65a64 64 0 0 1-7.33-.47c-2.44-.34-4.91-1-6.98-2.4m-7.43-7.25a8.3 8.3 0 0 1-7.87 2.23 7.7 7.7 0 0 1-5.64-6.02 7.7 7.7 0 0 1 2.63-7.67 8.3 8.3 0 0 1 8.32-1.18l.19 1.42c-3.75-1.31-7.97 1.6-7.58 5.85a5.6 5.6 0 0 0 3.5 4.65c2.22.9 4.27.18 6.16-.98l.5 1.53q-.1.06-.21.17m-1.98-8.75q.45 2.49 1.1 4.93c-1.33.88-2.8 1.78-4.44 1.26a3.5 3.5 0 0 1-2.51-2.8c-.44-3.08 2.87-5.09 5.47-3.53q.2.12.38.14m4.14-11.27a44 44 0 0 1 11.54-2.58l.13 3.16a71 71 0 0 0-14.2 2.74 2 2 0 0 1-.31-.52c-.75-1.77 1.61-2.35 2.84-2.8m35.63-1.5c1.28.16 2.73.25 3.85.94.58.35 1 .85 1.16 1.4q-.05.14-.05.3l-.04.84q-.15.3-.4.58-.15.16-.32.28l-.1.08-.25.18-.12.07-.3.18-.06.04h-.01l-.1-.04a72 72 0 0 0-19.3-3.04l-.02-2.88q8.06.1 16.06 1.08m-2.99 54.74a126 126 0 0 1-30.28.52 3.66 3.66 0 0 1 .4-4.74 293 293 0 0 1 30.27.42l.04.15a1 1 0 0 0 .17.4c.4 1.09.15 2.37-.6 3.25m.88-5.88a293 293 0 0 0-30.71-.45l-1.6-7.12q2.81.31 5.64.47c7.67.4 15.35-.08 22.98-.8q2.88-.27 5.74-.58zm3.25 21.98-2.45-14.43a1 1 0 0 0 .19-.7 5.4 5.4 0 0 0 .72-4.85c.36-.27.45-.8.28-1.24l2.28-9.43a20 20 0 0 0 3.07-.44c1.3-.31 2.5-1.26 2.6-2.7.08-1.46-1.1-2.25-2.35-2.63a56 56 0 0 0-6.38-1.52 1 1 0 0 0-.57-.17h-.41q-1.8-.3-3.62-.49 1.75-.74 3.25-1.98c2.12-1.77 3.59-4.22 4.69-6.72a57 57 0 0 0 4.58-19.8c.43-1.6-.19-3.34-1.84-4.47-1.45-.99-3.28-1.15-4.97-1.36a143 143 0 0 0-16.3-1.1q-.16-12.07-1.22-24.06c-.17-1.82-.8-4.24-3.07-4.3-2.16-.04-2.84 2.26-3.2 3.97-1.06 4.9-.78 10.08-.74 15.05q.03 4.67.17 9.32a47 47 0 0 0-12.4 2.8c-1.36.51-3 1.02-3.77 2.36q-.15.26-.24.54a1 1 0 0 0-.24.7q.07 1.7.21 3.4c-5.13-1.47-11.12 1.25-12.63 6.63-1.62 5.75 2.11 11.96 8.11 12.76 3 .4 6.09-.5 8.33-2.5a16 16 0 0 0 3.88 5.95 15 15 0 0 0 6.58 3.31 76 76 0 0 0-9.26 1c-1.64.27-3.44.46-5 1.06-1.15.44-2.2 1.34-2.18 2.68 0 .6.22 1.11.55 1.55a3373 3373 0 0 1-66.3-1.46c-.6-.02-.94.4-1 .87q-.24.25-.26.67l-1.78 40.2h2.12l1.75-39.6a3337 3337 0 0 0 71.08 1.5l1.85 8.26a5.8 5.8 0 0 0-.08 7.23l-4.14 22.61h41.54l-1.25-7.37Zm0 0"/><path fill="#f2eeea" d="m1629.04 837.07.03-1.8a85 85 0 0 1-4.53-1.7c-19.56-7.93-35.43-22.14-50.8-36.24a4 4 0 0 1-2.62 2.37c-2.26.6-4.14-1.2-5.12-3.03-.59-1.12-.98-2.42-1.9-3.34a5 5 0 0 0-2.9-1.38c-2.71-.4-5.53.86-7.92 1.97a57 57 0 0 0-6.89 3.85c-4.45 2.87-8.6 6.2-12.86 9.34-4.17 3.07-8.72 5.76-14.04 4.07-4.72-1.52-7.96-5.3-10.8-9.17q-1.99 1.37-4.04 2.66c-2.85 1.79-5.8 3.58-8.97 4.74a14.7 14.7 0 0 1-9.26.5c-2.95-.85-5.54-2.58-7.88-4.52a80 80 0 0 1-13.15-14.26l-1.35-1.88-1.83 35.93-2.94 57.71-1.46 28.6-.03.44h25.12l1.78-40.2q.02-.42.26-.67c.06-.47.4-.9 1-.87q8 .26 16 .47 25.14.69 50.3 1a2.6 2.6 0 0 1-.55-1.56c-.02-1.34 1.03-2.24 2.18-2.68 1.56-.6 3.36-.8 5-1.06a86 86 0 0 1 9.26-1 15 15 0 0 1-6.58-3.3 16 16 0 0 1-3.88-5.97 10.4 10.4 0 0 1-8.33 2.5c-6-.8-9.73-7-8.11-12.75 1.51-5.38 7.5-8.1 12.63-6.63q-.14-1.7-.21-3.4a1 1 0 0 1 .24-.7q.09-.29.24-.54c.78-1.34 2.4-1.85 3.76-2.36q2.56-.98 5.22-1.62a46 46 0 0 1 7.19-1.17q-.14-4.67-.17-9.33c-.04-4.97-.32-10.16.73-15.05.37-1.71 1.05-4 3.21-3.96 2.27.05 2.9 2.47 3.07 4.3q1.06 11.98 1.22 24.04a144 144 0 0 1 16.3 1.11c1.7.21 3.52.37 4.97 1.36 1.65 1.13 2.26 2.87 1.84 4.46a57 57 0 0 1-4.58 19.8c-1.1 2.51-2.57 4.96-4.7 6.73q-1.5 1.24-3.24 1.98a62 62 0 0 1 3.62.49h.41q.35 0 .57.17 3.26.58 6.38 1.52c1.25.38 2.43 1.17 2.34 2.63-.08 1.44-1.29 2.39-2.6 2.7-.98.24-2.02.35-3.06.44l-2.28 9.43c.17.44.08.97-.28 1.24a5.4 5.4 0 0 1-.72 4.86q.05.39-.19.69l2.45 14.43.18 1.1 1.25 7.37h32.26l.05-.63q-.86-37.1-.29-74.23"/><path fill="#24247b" d="M1463.62 784.8q-1.88-3-3.51-6.15c-2.93-5.69-5.57-13.15-2.32-19.26 2.7-5.08 8.4-7.48 13.53-9.46a27 27 0 0 0 6.82 4.66 11.6 11.6 0 0 0 9.44.15 14 14 0 0 0 7.08-7.18c2.27.84 4.72 1.13 7.12.57a13.4 13.4 0 0 0 7.18-4.72 17.4 17.4 0 0 0 3.65-8.23l.86.43q1.03.5 2.1.87a40.2 40.2 0 0 0 19.88 30.94c-3.22 10.73-11.33 19.42-19.72 26.55a104 104 0 0 1-15.55 10.92c-2.68 1.54-5.55 3.04-8.66 3.4-2.97.33-5.79-.6-8.31-2.12a39 39 0 0 1-6.85-5.61 87 87 0 0 1-12.15-14.83zm24.56-44.27c-4.27-4.21-8.63-9.44-9.6-15.55-.38-2.37-.3-5.71 1.82-7.33 2.42-1.86 4.91.87 6.16 2.77a64 64 0 0 1 4.71 8.8 28 28 0 0 1 2.68 9.74c.11 1.87-.07 3.8-.56 5.62a25 25 0 0 1-5.21-4.05m11.65-18.93c-1.27-2.22-2.2-4.99-1.86-7.58.16-1.18.64-2.47 1.71-3.1 1.36-.8 3.08-.13 4.16.83 1.17 1.06 1.88 2.54 2.53 3.96a80 80 0 0 1 2 4.74c1.25 3.3 2.26 6.75 2.43 10.28q.03.5.02 1c-4.29-2.57-8.48-5.75-10.99-10.13m23 15.08q.1.07.24.12c4.93 1.74 8.82 5.6 11.2 10.2 2.7 5.3 3.14 11.5 1.98 17.27l-.23 1.05a38 38 0 0 1-18.28-28.25 9.4 9.4 0 0 0 5.08-.39m6.18-6.87a18 18 0 0 0 1.2-5.06l1.74-.14-.16.25c-2.3 3.83-.41 8.83 1.96 12.13l.69.9a5.3 5.3 0 0 0-1.98 2.79 22 22 0 0 0-5.1-4.2q-1.07-.64-2.22-1.13a13 13 0 0 0 3.87-5.54m10.16 13.01.05-.1q1.66 1.35 3.48 2.48c-1.47 3.44-.8 7.56.82 10.94a21 21 0 0 0 3.74 5.35 9.7 9.7 0 0 0-4.58 4.2c-2.37 4.47-.42 9.67 2.67 13.21a34 34 0 0 0 4.62 4.2 32 32 0 0 0-5.47 2.15c-5.33 2.68-9.7 6.63-14.22 10.44-2.24 1.9-4.88 3.76-7.93 3.88-2.48.09-4.95-1.24-5.56-3.71 8.86-7.35 17.11-16.36 20.57-27.41 1.92-6.15 2.3-12.99.18-19.13q-.73-2.1-1.82-4.06a5.1 5.1 0 0 0 3.45-2.44m25.05 42.84c2 .91 3.8 2.2 5.25 3.86 1.35 1.55 2.83 3.9 2.62 6.05-.1.94-.74 2.1-1.8 2.13-1.04.05-1.83-.99-2.29-1.79-1.2-2.07-1.84-4.2-4.15-5.32-4.44-2.15-9.63.41-13.6 2.48-4.42 2.3-8.47 5.23-12.45 8.22-2.26 1.7-4.5 3.43-6.81 5.07-2.27 1.6-4.82 3.2-7.7 3.27-5.7.13-9.77-4.6-12.88-8.83a115 115 0 0 0 4.6-3.5c1.4 3.64 5.89 4.97 9.54 4.06 4.87-1.2 8.43-5.36 12.17-8.4 7.41-6.02 17.9-11.69 27.5-7.3m35.11-62.86-.09 1.73c-.03.55.5 1.08 1.06 1.05l9.07-.4q.36 8.1.3 16.2a108 108 0 0 0-16.41-9.69 111 111 0 0 0-24.82-8.38zm-53.12 20.91c3.35-3.27 8.49-2.96 12.66-1.83 2.11.58 4.67 1.2 6.35 2.68 1.64 1.43 1.94 3.77-.06 5.02-1.97 1.22-4.46.53-6.53-.04q-3.01-.82-5.95-1.89a50 50 0 0 1-7.11-3.21q.29-.38.64-.73m10.37 18.83q1.75.3 3.46.78c1.04.28 2.5.56 3.07 1.59 1.24 2.22-2.68 1.58-3.63 1.35a22 22 0 0 1-8.05-3.86c1.7-.25 3.46-.14 5.15.14m-78.04 42.84c2.34 1.94 4.93 3.67 7.88 4.53 3.08.9 6.28.59 9.26-.5 3.18-1.17 6.12-2.96 8.97-4.75q2.05-1.28 4.04-2.66c2.84 3.87 6.08 7.65 10.8 9.17 5.32 1.7 9.87-1 14.04-4.07 4.26-3.15 8.4-6.47 12.86-9.34a57 57 0 0 1 6.89-3.85c2.4-1.1 5.2-2.37 7.91-1.97 1.08.16 2.14.6 2.92 1.38.9.92 1.3 2.22 1.9 3.34.97 1.84 2.85 3.64 5.1 3.03a4 4 0 0 0 2.63-2.37c15.37 14.1 31.24 28.31 50.8 36.24q2.24.91 4.53 1.7l.04-2.24c-15.44-5.4-29.1-15.33-41.43-26.01a610 610 0 0 1-13.5-12.14v-.02c-.13-2.33-1.4-4.58-2.83-6.36a18 18 0 0 0-11.36-6.23 23 23 0 0 0-7.42.21c-3.48-2.7-7.35-5.66-8.53-10.13a7.6 7.6 0 0 1 .76-6.1 8.5 8.5 0 0 1 4.1-3.18 25 25 0 0 0 4.13 2.9 24 24 0 0 0 6.36 2.44c1.8.4 4.2.63 5.46-1.06 1.47-1.99-.08-4.4-2.01-5.3-2.38-1.12-5.32-1.6-7.92-1.82-1.8-.15-3.69-.01-5.48.47a20 20 0 0 1-3.96-5.33c-1.37-2.74-2.06-6.22-.95-9.09a60 60 0 0 0 13.07 5.18c2.42.68 5.11 1.4 7.57.45 1.96-.75 3.58-2.47 3.56-4.66-.05-5.3-7.14-7.04-11.21-7.85-4.67-.93-10.19-.4-13.43 3.51q-.19.22-.35.45a35 35 0 0 1-4.11-3 3.5 3.5 0 0 0-3.01-3.02 18 18 0 0 1-2.77-4.34c-.75-1.68-1.24-3.7-.84-5.53.43-2.03 1.97-3.29 3.93-3.82 2.15-.59 4.48-.54 6.69-.58a109 109 0 0 1 21.51 1.73c9.47 1.74 18.71 4.7 27.38 8.88a108.5 108.5 0 0 1 43.7 38.39c.74 1.13 2.57.07 1.82-1.07a111 111 0 0 0-11.57-14.8c15.06-3.67 30.35-7.51 43.81-15.45q.72-.41 1.42-.85-.28-1.07-.58-2.13c-10 6.29-21.44 10.2-32.83 13.26-4.43 1.2-8.89 2.27-13.35 3.36l-.14.04a112 112 0 0 0-13.05-11.52q.13-9.63-.35-19.27l-.01-.13 1.96-54.9.2-5.31-2.07-1.36-1.67 46.6-.52 14.53-7.89.35 3.04-56.47.49-9.07-2.05-1.2-2.77 51.46-.67 12.55-41.25.68a1 1 0 0 0-.64.22q-6.36-.72-12.78-.65c-3.14.02-7.22-.17-10.2 1.36h-.14l-4.14.33a28.4 28.4 0 0 0-3.33-12.7 38 38 0 0 0-7.66-9.91q.08-.2.08-.47l-2.44-53.74-.38-8.24q-1.05.24-2.09.5l2.1 46.37.63 13.68a69 69 0 0 0-4.66-3.64q-1.65-1.19-3.34-2.33l.01-.2-1.4-45.72-.19-6.39-2.1.6 1.18 38.5.36 11.8a80 80 0 0 0-13.78-7.25c-6.75-2.66-13.96-3.56-21.06-1.9-6.77 1.6-12.95 5.14-18.43 9.33-9.5 7.25-17.8 16.33-24.8 26.11a84 84 0 0 1-11.98-11.18l-1.12 1.88a87 87 0 0 0 11.9 11.02q-1.61 2.3-3.1 4.63a138 138 0 0 0-5.5 9.37c-.65 1.2 1.17 2.27 1.82 1.07a137 137 0 0 1 23.38-31.7c8.62-8.7 19.18-17.6 31.8-19.1 6.57-.78 13.06.84 19 3.57a98 98 0 0 1 16.86 10.14c5.23 3.83 10.08 8.45 13.09 14.26 2.8 5.4 4.13 12.12 1.94 17.97-.91 2.44-2.65 4.91-5.18 5.83-3.1 1.11-6.33-.38-9.04-1.88.16-2.96-.27-6-1.1-8.93a55 55 0 0 0-4.25-10.75c-1.46-2.76-4.26-5.47-7.67-4.63-2.9.7-4.07 3.85-4.04 6.56a16 16 0 0 0 2.76 8.41c2.9 4.44 7.4 7.95 12.1 10.57-.61 4.5-2.88 8.8-7 11.03-2.8 1.51-5.62 1.37-8.26.36 1.72-5.91.01-12.42-2.54-17.9a83 83 0 0 0-2.66-5.15c-.84-1.5-1.65-3.02-2.72-4.38-1.75-2.23-4.5-4.02-7.36-2.72-2.54 1.16-3.66 4.16-3.8 6.76-.2 3.38.88 6.77 2.45 9.72a41 41 0 0 0 6.14 8.32c2.27 2.47 4.77 4.87 7.74 6.47l.02.01c-1.33 3.09-3.7 5.62-7.2 6.6-4.78 1.35-9.26-1.67-12.89-4.96-.1-.37-.37-.67-.76-.71q-1.2-1.14-2.24-2.2a59 59 0 0 1-14.22-23.43c-.41-1.29-2.45-.73-2.03.56a61 61 0 0 0 16.26 25.83c-4.62 1.83-9.3 4.02-12.38 8.05-3.9 5.12-3.46 11.8-1.42 17.58a58 58 0 0 0 6.08 12.05 98 98 0 0 0 3.52 5.1 80 80 0 0 0 13.15 14.26"/><path fill="#f2eeea" d="M1550.22 853.4a5.6 5.6 0 0 1-3.5-4.64c-.4-4.25 3.82-7.16 7.57-5.85l-.19-1.42-.09-.03a8.3 8.3 0 0 0-8.23 1.2 7.7 7.7 0 0 0-2.63 7.68 7.7 7.7 0 0 0 5.64 6.02 8.3 8.3 0 0 0 7.87-2.23q.1-.1.21-.17l-.5-1.53c-1.89 1.16-3.94 1.88-6.15.98"/><path fill="#f2eeea" d="M1548.83 848.77a3.5 3.5 0 0 0 2.51 2.8c1.64.52 3.1-.38 4.43-1.26q-.64-2.44-1.09-4.93a1 1 0 0 1-.38-.14c-2.6-1.56-5.9.45-5.47 3.53m9.8-99.22c2.07.57 4.56 1.26 6.53.04 2-1.25 1.7-3.59.06-5.02-1.68-1.49-4.24-2.1-6.35-2.68-4.17-1.13-9.3-1.44-12.66 1.83q-.36.35-.64.73a50 50 0 0 0 7.12 3.21q2.93 1.07 5.94 1.9m.85 16.71c.95.23 4.87.87 3.63-1.35-.58-1.03-2.03-1.3-3.07-1.59q-1.7-.47-3.46-.78a17 17 0 0 0-5.15-.14q1.15.86 2.38 1.58a22 22 0 0 0 5.67 2.28m-40.1-66.72q0 .27-.08.47a38 38 0 0 1 7.66 9.9 28.5 28.5 0 0 1 3.34 12.7q2.07-.15 4.13-.32h.13c2.99-1.54 7.07-1.34 10.21-1.36q6.41-.06 12.78.65a1 1 0 0 1 .64-.22l41.25-.68.67-12.55 2.77-51.46q-6.1-3.5-12.4-6.57l-.8-.4a53 53 0 0 1-3.03 7.02q0 .34-.26.66a29 29 0 0 1-11.09 8 28.4 28.4 0 0 1-23.7-.84 29.4 29.4 0 0 1-14.64-17.57 1 1 0 0 1-.21-.72l1.3-11.6-.35-.66-.34.04a193 193 0 0 0-20.8 3.53l.38 8.24zm36.74 137.63q.08.15.18.25l.21-.08a72 72 0 0 1 13.97-2.66l-.12-3.16a44 44 0 0 0-11.54 2.58c-1.23.45-3.59 1.03-2.84 2.8q.06.15.14.27"/><path fill="#24247b" d="M1536.75 646.26q-.05.47.21.72a29.4 29.4 0 0 0 14.64 17.57 28.4 28.4 0 0 0 23.7.85 29 29 0 0 0 11.1-8q.25-.34.26-.67a54 54 0 0 0 3.01-7.02l-1.91-.91a50 50 0 0 1-3.09 7.16q-.08.17-.11.33a27.3 27.3 0 0 1-19.68 9.2 26.3 26.3 0 0 1-19.89-8.6 26.5 26.5 0 0 1-6.1-10.86l1.02-9.05a38 38 0 0 0 14.71 10.84c1.2.48 1.7-1.28.82-1.93a51.7 51.7 0 0 1-17.82-23.64q.42 2.29 1.16 4.47l-.39 2.41-.28 1.92q-.22 1.48-.41 2.95l.36.66z"/><path fill="#f2eeea" d="M1539.18 599.74a2.98 2.98 0 0 0-4.73 1.56c-.55 2.15 1.3 3.84 3.38 3.65 1.35-.13 1.34 1.98 0 2.1-3.57.34-6.49-3.16-5.33-6.6 1.19-3.5 5.38-4.45 8.18-2.2 1.06.85-.45 2.34-1.5 1.5m28.2 22.15a13 13 0 0 0 11.94 6.52c1.36-.08 1.35 2.04 0 2.1a15.1 15.1 0 0 1-13.77-7.55c-.66-1.19 1.16-2.25 1.83-1.07m3.05-11.86a9.6 9.6 0 0 1 2.27-4.49c.62-.7 1.8-.12 1.8.75a7 7 0 0 1-1.88 4.86c-.32.36-.8.38-1.17.2-.6-.07-1.17-.58-1.02-1.32m10.01 5.8c-.57-1.23 1.25-2.3 1.83-1.07l5.32 11.44c.34.74-.25 1.92-1.2 1.55l-12.7-5.02c-1.25-.5-.7-2.54.56-2.04l10.36 4.1zm10.04.06q.03-.15.1-.3.2-.48.47-.9l.02-.04q.39-.64.9-1.23c.62-.7 1.8-.12 1.8.75 0 1.74-.65 3.34-1.84 4.6-.64.67-1.8.15-1.8-.75q0-1.1.35-2.13m-35.04 30c.88.64.38 2.4-.82 1.92a38 38 0 0 1-14.71-10.84l-1.02 9.05a26.5 26.5 0 0 0 6.1 10.86 26.3 26.3 0 0 0 19.88 8.6 27.3 27.3 0 0 0 19.69-9.2q.03-.17.12-.33a50 50 0 0 0 3.08-7.16l-.06-.03.11-1.17.37-.1q1.24-.34 2.44-.79c3.49-1.3 6.69-3.3 9.41-5.84a65 65 0 0 0 9.2-24.26 7.7 7.7 0 0 1-4.16-2.7 10 10 0 0 1-1.6-3.05q-1.08.32-2.35.15c-3.56-.52-5.86-3.79-7.46-6.73-2.53-4.66-3.63-9.85-4.34-15.07q-1.01.8-2.09 1.53a58 58 0 0 1-8.37 4.68c-3.07 1.43-6.27 2.91-9.6 3.58-3.13.62-6.62.47-9.35-1.33a8.7 8.7 0 0 1-3.02-3.38 13 13 0 0 1-6.52.8c-2.12-.3-4.1-1.27-5.62-2.68-.4-1.27-.95-2.2-.95-2.2l-.18-.18q-.6-.6-1.29-1.12l-.33-.24-.02-.02a13 13 0 0 0-7.55-2.36c-4.45 0-8.46 2.44-11.02 6-5.36 7.46-2.7 18.58 5.29 23.02a16.4 16.4 0 0 0 8.46 2.03q.03 2.48.46 4.91a51.7 51.7 0 0 0 17.82 23.64m15.05 188.81"/><path fill="#24247b" d="M1571.45 611.35c.37.19.85.17 1.17-.2a7 7 0 0 0 1.88-4.85c0-.87-1.18-1.45-1.8-.74a9.6 9.6 0 0 0-2.27 4.48c-.15.74.43 1.25 1.02 1.31m7.87 19.18c1.35-.08 1.36-2.19 0-2.11a13 13 0 0 1-11.94-6.52c-.67-1.18-2.5-.12-1.83 1.07a15.1 15.1 0 0 0 13.77 7.56"/><path fill="#f2eeea" d="M1590.76 889.57a127 127 0 0 1-29.12.46l-2.64 14.35a211 211 0 0 1 34.38-1.36l-2.24-13.19a1 1 0 0 1-.38-.26m1.09-6.01q-15.13-.99-30.26-.42a3.65 3.65 0 0 0-.41 4.74h.12c10.04 1.03 20.18.87 30.16-.52.75-.88 1-2.16.6-3.25a1 1 0 0 1-.17-.4zm-21.68-11.16c6.38.07 12.75-.38 19.1-.99 3.16-.3 6.41-.46 9.53-1 .45-.09 1.73-.4 1.23-1.07-.3-.4-1.51-.5-1.95-.61a67 67 0 0 0-6.08-1.27l-15.93-.08q-.18.07-.41.07a82 82 0 0 0-16.23.94c-1.56.26-3.26.43-4.74.97-.52.2-1.08.43-.75 1.05s1.43.7 2.03.82q2.28.38 4.6.63 4.8.5 9.6.54m-4.5 1.98a97 97 0 0 1-5.64-.47l1.6 7.12q15.38-.58 30.71.45l2.05-8.48q-2.86.3-5.74.58c-7.63.72-15.31 1.2-22.98.8m12.73-10.13c2.6.07 5.26.02 7.79-.65a12 12 0 0 0 6.14-3.85c1.69-2.04 2.77-4.55 3.66-7.01a57 57 0 0 0 3.13-13.58c-2.53 1.58-5.92 2.14-8.78 2.56-3.57.52-7.19.73-10.79.96-3.65.23-7.32.37-10.97.13-3.56-.23-7.15-.8-10.52-1.99q-1.06-.36-2.02-.91a54 54 0 0 0 3.63 15.54c.96 2.3 2.33 4.5 4.43 5.93 2.06 1.41 4.53 2.06 6.97 2.4 2.42.34 4.9.42 7.33.47m0-29.83"/><path fill="#24247b" d="M1550.38 595.09a13 13 0 0 0 6.51-.8 8.6 8.6 0 0 0 3.02 3.38c2.73 1.8 6.22 1.95 9.34 1.33 3.34-.67 6.54-2.15 9.6-3.58a58 58 0 0 0 8.38-4.68q1.07-.74 2.1-1.53c.7 5.23 1.8 10.41 4.33 15.07 1.6 2.94 3.9 6.2 7.46 6.73q1.27.17 2.34-.15c.38 1.09.88 2.12 1.61 3.04a7.7 7.7 0 0 0 4.16 2.71 65 65 0 0 1-9.2 24.26 28 28 0 0 0 1.56-1.58 14 14 0 0 0 1.56.51 66 66 0 0 0 8.18-23.06l.43-.06a6 6 0 0 0 3.47-2.32l-.36-.25q.12-1.57.11-3.16c-.08-12.45-6.14-24.61-16.54-31.78-12.06-8.3-28.18-9.15-40.92-1.92a40 40 0 0 0-13.72 12.96s.55.93.95 2.2a10.5 10.5 0 0 0 5.63 2.68"/><path fill="#24247b" d="m1573.7 622.74 12.7 5.02c.94.37 1.53-.81 1.19-1.55l-5.32-11.44c-.58-1.23-2.4-.16-1.83 1.07q2.1 4.47 4.17 8.96l-10.36-4.1c-1.26-.5-1.81 1.55-.56 2.04"/><path fill="#f2eeea" d="m1597.7 837.46.1.04h.02l.06-.04.3-.18.12-.07.25-.18.1-.08.31-.28q.27-.28.41-.58l.04-.84q0-.17.05-.3a2.5 2.5 0 0 0-1.16-1.4c-1.12-.69-2.57-.78-3.85-.93a145 145 0 0 0-16.06-1.08l.01 2.88a72 72 0 0 1 19.3 3.04m11.95-96.08q.08-8.1-.3-16.2l-9.06.4c-.55.03-1.1-.5-1.06-1.05l.1-1.73-30.9.51a111 111 0 0 1 24.82 8.38 108 108 0 0 1 16.4 9.69"/><path fill="#24247b" d="M1591.93 618.78a6.6 6.6 0 0 0 1.85-4.6c0-.87-1.19-1.45-1.8-.75q-.52.6-.91 1.23l-.02.03q-.26.44-.47.9-.07.15-.1.31-.35 1.03-.36 2.13c0 .9 1.17 1.42 1.81.75"/><path fill="#f2eeea" d="M1597.8 837.5h.02zm28.67-81.3q6.4 6.9 11.57 14.8c.75 1.14-1.08 2.2-1.82 1.07q-1.79-2.74-3.73-5.37a108.4 108.4 0 0 0-39.97-33.02 108.4 108.4 0 0 0-48.9-10.61c-2.2.04-4.53 0-6.68.58-1.96.53-3.5 1.79-3.93 3.82-.4 1.84.1 3.85.84 5.53.69 1.56 1.65 3 2.77 4.34.85.09 1.66.52 2.24 1.23q.65.8.77 1.78a32 32 0 0 0 4.1 3.01l.36-.45c3.24-3.9 8.76-4.44 13.43-3.5 4.07.8 11.16 2.54 11.21 7.84.02 2.2-1.6 3.91-3.56 4.66-2.46.95-5.15.23-7.57-.45a60 60 0 0 1-13.07-5.18c-1.1 2.87-.42 6.35.95 9.1a20 20 0 0 0 3.96 5.32c1.79-.48 3.69-.62 5.48-.47 2.6.22 5.54.7 7.92 1.82 1.93.9 3.48 3.31 2.01 5.3-1.25 1.69-3.65 1.46-5.46 1.06a24 24 0 0 1-6.36-2.44 25 25 0 0 1-4.14-2.9 8.5 8.5 0 0 0-4.09 3.17 7.6 7.6 0 0 0-.76 6.11c1.18 4.47 5.05 7.44 8.53 10.13a23 23 0 0 1 7.42-.2 17.8 17.8 0 0 1 11.36 6.22c1.43 1.78 2.7 4.03 2.84 6.36v.01c4.45 4.1 8.92 8.19 13.49 12.15 12.34 10.68 26 20.6 41.43 26.01l.02-.83c3.4.05 6.82-.45 10.1-1.41 8.12-2.4 15-7.74 20.2-14.33 10.52-13.32 15.23-30.94 15.65-47.7.24-9.72-.95-19.44-3.38-28.86q-.7.45-1.42.85c-13.46 7.94-28.75 11.78-43.81 15.44m-25.07-32.77 7.89-.35.52-14.54 1.67-46.59a188 188 0 0 0-6.55-4.06l-.5 9.07z"/><path fill="#24247b" d="M1614.11 623.3c-1.05-.84-2.55.65-1.49 1.5 2.2 1.74.87 5.4-2.07 4.77-1.32-.28-1.89 1.75-.56 2.04a4.9 4.9 0 0 0 5.45-2.48 4.85 4.85 0 0 0-1.33-5.83"/><path fill="#f2eeea" d="M1615.44 629.13c-1 2-3.32 2.93-5.45 2.48-1.33-.29-.76-2.32.56-2.04 2.94.63 4.26-3.03 2.07-4.78-1.06-.84.44-2.33 1.5-1.49a4.85 4.85 0 0 1 1.32 5.83m-3.68-12.45-.43.07a66 66 0 0 1-8.18 23.05c4.9 1.33 10.41.09 14.04-3.66a14.4 14.4 0 0 0 2.32-17.05 15 15 0 0 0-4.28-4.73 6 6 0 0 1-3.47 2.32m-.37 106.82v.14q.5 9.63.36 19.27a112 112 0 0 1 13.05 11.52l.14-.04c4.46-1.09 8.92-2.17 13.35-3.36 11.4-3.07 22.82-6.97 32.84-13.26a116 116 0 0 0-7.37-19.43c-7.42-15.3-18.31-28.82-30.94-40.15a171 171 0 0 0-19.28-14.9l-.19 5.33z"/></svg>