<svg xmlns="http://www.w3.org/2000/svg" width="302" height="360" viewBox="1183.92 347.27 301.98 359.52"><path fill="none" stroke="#ffffff" stroke-linecap="round" stroke-linejoin="round" stroke-miterlimit="10" stroke-width="2.74" d="M1204.72 551.34c-2.26 2.27-1.38 6.03-1.74 9.22-.27 2.45-1.35 4.72-1.83 7.13a8.4 8.4 0 0 0 .46 5.18q.44.94 1.26 1.61"/><path fill="none" stroke="#ffffff" stroke-linecap="round" stroke-linejoin="round" stroke-miterlimit="10" stroke-width="2.74" d="M1223.89 532.52c-7.96 7.61-17.12 8.48-25 16.19-5.83 5.7-8.12 14.01-10.16 21.91-1.5 5.85-2.81 12.68.9 17.44 1.88 2.43 4.8 3.85 7.71 4.8 11.12 3.57 20.27 1.46 30.74-2.95q1.08-.44 2.17-.93"/><path fill="none" stroke="#ffffff" stroke-linecap="round" stroke-linejoin="round" stroke-miterlimit="10" stroke-width="2.74" d="M1206.04 576.28c6.39 4.09 15.48 4 21.19-.9l.47-.43m-19.04-25.32q1.04-1.06 2.16-2.07a55 55 0 0 1 14.39-9.44m1.49-2.74a3.3 3.3 0 0 0-1.05 2.72q.04.7.27 1.35c.52 1.38 1.56 2.5 2.58 3.55l4.55 4.73m-1.22 11.22c-3.63 4.69-4.33 11.16-2.96 16.94l.05.22a34 34 0 0 0 4.26 9.75 64 64 0 0 0 4.21 5.97c2.67 3.38 5.63 6.64 9.4 8.71 3.4 1.87 7.6 2.65 11.26 1.43q.57-.18 1.13-.43m-21.92-56.2a19 19 0 0 0 7.45 2.18c.63.05 1.3.05 1.92-.05a4 4 0 0 0 2.22-.97c1.12-1.08 1.26-2.82 1.3-4.39q.02-.47-.03-.95a2 2 0 0 0-.37-.95l-.02-.02c-.3-.36-.77-.54-1.2-.71q-5.51-2.08-11.1-3.95"/><path fill="none" stroke="#ffffff" stroke-linecap="round" stroke-linejoin="round" stroke-miterlimit="10" stroke-width="2.74" d="m1249.52 540.11.21.08q.57.16 1.16.04.54-.07 1.07-.23c1.86-.5 4.07-1.37 4.37-3.29a3 3 0 0 0-.66-2.32 9 9 0 0 0-2.51-2.15 241 241 0 0 0-12.39-7.37"/><path fill="none" stroke="#ffffff" stroke-linecap="round" stroke-linejoin="round" stroke-miterlimit="10" stroke-width="2.74" d="m1225.36 531.22-.06-.32c-.4-2.5.32-5.18 1.95-7.14.7-.85 1.58-1.57 2.13-2.54.7-1.2.81-2.63 1.17-3.97.73-2.8 2.5-5.2 4.22-7.52.65-.88 1.3-1.76 2.14-2.48 2.24-1.92 5.45-2.31 8.4-2a24 24 0 0 1 8.63 2.75 34 34 0 0 1 6.36 4.4 54 54 0 0 1 4.5 4.44c2.34 2.61 4.49 5.41 6.64 8.2.77 1.01 1.56 2.06 1.87 3.3s.02 2.71-1.03 3.43a4 4 0 0 1-2.3.5 10.3 10.3 0 0 1-8.01-4.3m-30.05 31c4.6-2.6 9.43-5.47 14.33-8.4 8.29-4.98 16.76-10.14 24.54-14.55"/><path fill="none" stroke="#ffffff" stroke-linecap="round" stroke-linejoin="round" stroke-miterlimit="10" stroke-width="2.74" d="M1256.27 532.94a6 6 0 0 0 4.31-1.08 4.6 4.6 0 0 0 1.78-3.38q.01-.3-.02-.6c-.27-2.12-2.13-3.61-3.88-4.83a132 132 0 0 0-12.6-7.77m20.03 1.3c1.21-1.31 3.45-1.13 4.9-.08s2.3 2.7 3.1 4.3l.31.6 2.93 5.85m9.19 114.7c-1.07 10.5-3.4 20.27-6.39 30.4-1.6 5.42-3.44 17.53-4.69 27.71l-.26 2.24m-.91-181.85a34 34 0 0 0 7.9.33c1.5-.11 3.15-.26 4.3.7 1.17.96 1.32 2.8.66 4.18a7 7 0 0 1-2.8 2.76l-.5.29m-20.97 70.85q2.26-.64 4.38-1.65 2.86-1.3 5.41-3.16c2.61-1.92 5-4.28 8.01-5.45l3.41-2.84c1.7-.75 3.62-1.4 5.61-2.03 4.06-1.26 8.46-2.4 11.94-3.9l.3-.13m-23.82-45.21c2.26-.23 4.7-.42 6.67.71a10 10 0 0 1 2.84 2.8 42 42 0 0 1 7.64 17.76"/><path fill="none" stroke="#ffffff" stroke-linecap="round" stroke-linejoin="round" stroke-miterlimit="10" stroke-width="2.74" d="M1278 532.33a20 20 0 0 0-1.08 3.4 22.3 22.3 0 0 0 1.25 13.74c1.39 3.18 3.51 5.97 5.6 8.74 3.59 4.73 7.44 9.66 12.82 12.08q.4.19.84.36m-12.89 11.6a30 30 0 0 1 6.33-7.4m-9.37 33.53q-.14-.5-.5-.8c-.9-.76-2.55-.68-3.46.2-1.16 1.1-1.38 2.87-1.38 4.47-.01 4.87 1.28 9.63 2.56 14.31.87 3.15 1.74 6.33 3.42 9.12 1.3 2.16 3 3.95 4.95 5.5 4.28 3.37 9.79 5.48 15 7.37m-11.46-62.25v9.11m-.08-90.77q.74 12.8.27 25.6m-8.73 77.8V608c.25-1.53-.15-3.08-.4-4.62-.23-1.53-.25-3.25.67-4.5 1.03-1.41 2.89-1.86 4.6-2.16q2.02-.35 4.06-.61 4.92-.66 9.88-.79l.65-.01m-21.75-65.54q1.45-.46 2.88-.57.71-.06 1.42-.02c5.97.22 11.5 4.73 15.61 10.7 5.72 8.3 8.66 19.45 6.15 25.78m-52.96-58.32 1.74-1.58 23.14-21.08c4.23-3.85 8.49-7.73 13.4-10.65 10.3-6.14 22.64-7.65 34.6-8.5 7.45-.53 12.8-.02 20.27-.14m-49.99 95.63q.13.21.28.41c1.7 2.41 4.43 3.91 6.52 6 4.73 4.73 5.78 11.94 6.18 18.62a172 172 0 0 1 .17 16.38"/><path fill="none" stroke="#ffffff" stroke-linecap="round" stroke-linejoin="round" stroke-miterlimit="10" stroke-width="2.74" d="M1301.27 572.21q.63.55 1.15 1.2a12 12 0 0 1 2.18 4.5c.47 1.72.72 3.54.88 5.3a108 108 0 0 1 .25 16.54m.1-34-.07.17m.1-.26-.03.09m28.81 81.34-1.28.29-18.57 4.27c-1.79.42-3.63.83-5.44.53-2.37-.4-4.28-1.93-6.01-3.67q-1.18-1.22-2.3-2.42a53 53 0 0 0-7.04-6.23c-2.04-1.5-4.24-2.9-5.75-4.93-1.36-1.83-2.07-4.05-2.75-6.22l-5-15.83c-.79-2.51.43-4.01 2.13-4.29a4.5 4.5 0 0 1 3.99 1.52c1.35 1.47 2.04 3.43 2.74 5.3q2.1 5.47 4.83 10.64c1.46 2.75 3.15 5.53 5.75 7.26 3.17 2.11 7.2 2.34 11.02 2.5l4.57.2 2.76.12m-18.1-96.58q8.81-12.68 18.33-24.82m-32.77 87.2c.37 1.26 1.86 1.74 3.14 2a127 127 0 0 0 34.87 2.44c3.9-.27 7.96-.77 11.18-2.98"/><path fill="none" stroke="#ffffff" stroke-linecap="round" stroke-linejoin="round" stroke-miterlimit="10" stroke-width="2.74" d="M1331.86 636.1c-3.73-1.28-7.65-1.91-11.54-2.61q-1.7-.3-3.4-.65c-5-1.03-10.06-2.63-13.9-5.98l-.23-3.06c.52-1.94 2.74-3 4.75-2.96 2 .01 3.9.84 5.82 1.43 2.73.86 5.6 1.3 8.47 1.17 4.7-.22 9.18-1.92 13.82-2.7q.44-.08.88-.13c1.47-.2 2.99-.27 4.47-.16q1.9.1 3.67.65a11 11 0 0 1 4.28 2.45m-36.11-28.4c2.7-.2 5.38.15 8.05.53 5.76.78 11.57 1.57 17.07 3.47.43.15.88.33 1.2.67.36.42.44 1.02.5 1.59a35 35 0 0 1-.2 7.84 37 37 0 0 1-3.05 10.6m-8.53-116.8a3.5 3.5 0 0 0-1.26 2.06c.9-.1 1.68-.92 1.74-1.84-.12-.23-.47-.31-.7-.16"/><path fill="none" stroke="#ffffff" stroke-linecap="round" stroke-linejoin="round" stroke-miterlimit="10" stroke-width="2.74" d="M1340.29 609.96a5.7 5.7 0 0 1 2.98 4.12 5.7 5.7 0 0 1-1.88 5.06l-.12-.02q-.11.67-.27 1.33c-1.48-.1-3-.04-4.47.16l.26-1.61a37 37 0 0 0 2.67-9.75q.44.32.9.57Zm-20.22-100.6q.3.16.57.34.7.4 1.45.75 2 .97 4.16 1.51c.55.14 1.13.25 1.66.08.64-.2 1.1-.75 1.5-1.29q1.71-2.19 3.38-4.42a388 388 0 0 0 20.28-29.52c2.56-4.12 5.18-8.42 9.24-11.07m-41.81 40.08a527 527 0 0 0 22.79-31.2c1.78-2.64 3.59-5.33 5.84-7.57a20 20 0 0 1 2.04-1.77c2.76-2.08 6.37-3.33 9.71-2.74q.93.16 1.83.53"/><path fill="none" stroke="#ffffff" stroke-linecap="round" stroke-linejoin="round" stroke-miterlimit="10" stroke-width="2.74" d="M1339.97 609.82q.17.06.32.14a5.7 5.7 0 0 1 2.98 4.12 5.7 5.7 0 0 1-1.88 5.06"/><path fill="none" stroke="#ffffff" stroke-linecap="round" stroke-linejoin="round" stroke-miterlimit="10" stroke-width="2.74" d="M1340.36 605.27q.6.04 1.17.19a8.7 8.7 0 0 1 6.08 6.04c.9 3.28-.13 6.93-2.33 9.5m23.82-238.15q-.23.53-.5 1.04c-3.16 6.32-8.67 11.3-11.91 17.62a29 29 0 0 0-2.92 17.45c1.01 6.93 4.48 14.13 2.71 20.65q-.26.96-.68 1.91m-17.28 204.88q1.69.28 3.38.65a69 69 0 0 1 31.09 15.77l3.32 3.03c2.77 2.48 5.69 4.8 9.19 5.7q.38.1.79.18m-23.61-206.35.48.04a9 9 0 0 0 3.71-.61m-33.01 42.33q9.13 4.52 18.78 7.7 4.65 1.53 9.38 2.8a292 292 0 0 0 46.6 8.79m-57.32 99.32a159 159 0 0 0 39.14 17.64l.8.24m-15.43-213.74c1.47-1.23 1.39 2.76.12 1.66-.49-.43-.54-1.3-.12-1.66m2.92-14.3c1.77.13 4.77 1.7 5.72 3.2m-7.25 38.11c.36 1.2 2.51 3.31 3.46 4.14 3.23 2.85 7.77 2.55 10.7 1.42m-2.85-27.32c-.3 1.41-.68 2.93-1.76 3.9-.58.52-1.34.83-1.96 1.32a4.6 4.6 0 0 0-1.12 5.75m-34.71 38.2q.05 1.4.27 2.74c2.12 13.3 15.36 20.83 27.53 24.2 15.01 4.16 31.16 3.41 43.51-6.79q.6-.49 1.2-1.02 1.53-1.39 2.94-2.91m-15.5-104.6c-3.98-3.32-8.16-.3-11.48 1.28-5.05 2.4-8.76 7.5-13 11.13-2.8 2.4-5.39 5.07-8.46 7.1a17 17 0 0 1-7.35 2.91 11 11 0 0 1-3.07 0"/><path fill="none" stroke="#ffffff" stroke-linecap="round" stroke-linejoin="round" stroke-miterlimit="10" stroke-width="2.74" d="M1381.8 676.26a9.4 9.4 0 0 0 4.15-2.48c.9-.87 1.7-1.88 2.39-2.92a31.7 31.7 0 0 0 4.14-26.27m-27.32-218.09a45 45 0 0 0-2.12 19.04c.66 6.23 2.59 12.5 5.65 18.91q.46 1 .98 2.01c1.62 3.18 3.52 6.29 6.2 8.66 5.02 4.45 15.6 3.82 21.63 2.45 7.7-1.75 13.74-4.32 18.84-8.42a44 44 0 0 0 9.51-10.99m-54.35-78.32c9.26-11.58 20.53-22.03 31.63-26.36 10.82-4.21 22.57-1.7 31.92 5.14q.37.25.73.54M1407 441.28c1.45-1.23 1.38 2.76.11 1.66-.5-.43-.54-1.3-.12-1.66m8.28 96.92q-.13 2.1-.52 4.2c-1.12 6.24-3.65 12.27-4.94 18.53-.99 4.82-1.25 9.75-1.5 14.66l-1.36 26.5c-.16 3.04-.3 6.09-.05 9.12a42 42 0 0 0 2.51 10.8 57 57 0 0 0 5.84 11.7m-8.16-207.53c3.54-.14 7.53 1.8 10.08 4.27m-28.81 211.38q.15-.26.35-.48a5 5 0 0 1 3.82-1.55c1.62 0 3.18.5 4.75.91 6.77 1.78 13.62 2.96 20.61 2.98q.51 0 1.38.15c4.45.69 15.24 3.79 18.9 5m-24.14-118.61a1.7 1.7 0 0 0-.3 1.97 3.4 3.4 0 0 0 1.7-2.7.85.85 0 0 0-.95.2m-.46-131.64.7.7c1.92 1.94 3.47 4.13 3.7 6.83.25 3.04-.05 6.12.23 9.15a24.8 24.8 0 0 0 12.05 18.86m-8.63 259.22.15 1.14 1.26 9.45.2 1.37M1416.93 470q-.04.6.03 1.18c.16 1.44.78 2.84 1.47 4.13 2.7 5.03 7.48 10.22 12.38 13.14m.87-119.71c-4.36 4.48-10.4 11.3-12.98 16.99"/><path fill="none" stroke="#ffffff" stroke-linecap="round" stroke-linejoin="round" stroke-miterlimit="10" stroke-width="2.74" d="M1408.35 532.07q1.13-2.36 2.3-4.7a410 410 0 0 1 21.51-38.06l1.6-2.47c.23-.38.5-.77.92-.92.52-.17 1.07.1 1.54.37q2.5 1.43 4.75 3.22c.52.4 1.06.9 1.12 1.56.04.48-.2.94-.44 1.36q-.91 1.66-1.85 3.3c-7.94 14.02-16.9 27.5-23.58 42.15l-1.68-.7-3.04-1.27-1.2-.5m29.16 27.48c-7.78 9.57-10.94 22.06-12.62 34.28-1.5 11.06-3.38 29.76-6.15 42.04q-.45 1.95-.9 3.65"/><path fill="none" stroke="#ffffff" stroke-linecap="round" stroke-linejoin="round" stroke-miterlimit="10" stroke-width="2.74" d="M1440.41 495.76a433 433 0 0 1 10.99 6.28c5 3.01 9.82 6.28 14.22 10.1 7.58 6.59 13.86 15.08 16.1 24.86 2.17 9.58.35 19.54-1.47 29.18l-19.34 102.36c-1.66 8.72-4.38 18.82-12.62 22.11-3.25 1.3-6.87 1.27-10.38 1.17a438 438 0 0 1-15.53-.68q-1.97-.1-3.92-.24c-5.56-.38-11.12-.86-16.57-2.01-7.98-1.7-15.6-4.8-23.15-7.91-.82-.34-1.68-.7-2.19-1.43-.53-.77-.56-1.77-.56-2.7q0-4.57-.03-9.12m51.99-197.98c3.14 2 6.67 1.09 10.1-.32m-8.6-15.13q.55.18 1.11.28a12.6 12.6 0 0 0 11.41-3.5"/><path fill="none" stroke="#ffffff" stroke-linecap="round" stroke-linejoin="round" stroke-miterlimit="10" stroke-width="2.74" d="M1434.77 440.72q.5.73 1.21 1.26c1.03.8 2.31 1.32 3.45 1.98a13 13 0 0 1 5.28 6.25 12.7 12.7 0 0 1 .74 7.45m-5.83 16.75q.98.63 1.9 1.36a21.6 21.6 0 0 1 7.72 13.27c.51 3.16.45 6.74 1.42 9.7a8.3 8.3 0 0 0 2.54 3.92"/><path fill="none" stroke="#ffffff" stroke-linecap="round" stroke-linejoin="round" stroke-miterlimit="10" stroke-width="2.74" d="M1440.49 361.77q.57.19 1.15.42c4.09 1.57 8 4.36 10.43 7.92 6.9 10.18 9.05 21.5 8.8 33.8-.1 4.64.58 8.12.43 12.75-.35 9.82.94 19.78-.94 29.43-1.9 9.64-4.73 11.54-17.54 21.69"/></svg>