<svg xmlns="http://www.w3.org/2000/svg" width="308" height="344" viewBox="1259 218.34 307.82 344.27"><path fill="#f2eeea" d="M1320.34 452.33c-5.07-1.54-9.57-5.58-13.04-9.46a45 45 0 0 1-8.4-13.76c-.5-1.3 1.6-1.87 2.1-.57a42.4 42.4 0 0 0 11.93 16.8c3.38 2.88 8.28 6.55 12.99 4.96 2.97-1.01 4.7-3.7 5.36-6.64a35 35 0 0 1-7.11-4.56 34 34 0 0 1-9.49-12.24c-.9-2.02-1.57-4.56-.54-6.66 1.11-2.27 3.86-2.9 6.12-2.1 2.53.9 4.58 3.13 6.21 5.18a38 38 0 0 1 4.42 7.1c1.78 3.68 3.16 7.83 2.82 11.88 4.1 1.54 10.12 1.97 12.25-2.75a8 8 0 0 0 .6-2.4c-4.41-3.17-8.56-6.74-11.82-11.12-2.38-3.2-7.01-10.26-2.07-13.36 1.9-1.2 4.47-.95 6.33.21 2.28 1.43 3.72 3.9 4.96 6.21 2.7 5.06 4.7 11.06 4.79 16.85v.15a35 35 0 0 0 3.79 2.43c2.17 1.17 4.46 1.26 6.3-.54 3.64-3.58 2.93-9.64 1.52-14.04-2.72-8.49-8.45-16.08-15.31-21.67-15.01-12.23-36.55-14.12-53.58-4.98-1.24.66-2.34-1.21-1.1-1.88a52 52 0 0 1 12.66-4.76 424 424 0 0 1-18.61-16.84 176 176 0 0 0-14.93 27.4c-4.28 9.85-8.02 20.31-8.27 31.16-.22 9.39 2.58 18.68 9 25.68 2.83 3.1 6.32 5.6 10.25 7.1 4.64 1.77 9.65 1.78 14.46.75 5.52-1.18 10.78-3.56 15.9-5.89a202 202 0 0 0 14.65-7.4c-1.62.36-3.37.3-5.14-.24"/><path fill="#f2eeea" d="M1305.72 390.06a51 51 0 0 1 25.38 1.94 50 50 0 0 1 12.07 6.13 420 420 0 0 1 11.31-37.45q.18-.46.55-.63 1.3-25.14 3.4-50.21a173 173 0 0 0-19.75 10.79 182 182 0 0 0-53.03 51.3 424 424 0 0 0 20.07 18.13m25.82 49.42c-.5-4.98-3.16-10.05-6.1-14.01-1.4-1.89-3.2-4.07-5.37-5.1-1.02-.5-2.37-.7-3.35.02-.8.59-.96 1.64-.9 2.56.14 2.07 1.27 4.04 2.29 5.78q1.72 2.96 4.03 5.48a32 32 0 0 0 9.45 7.12q.03-.95-.05-1.85m12.51-15.04a36 36 0 0 0-3.48-6.86c-1.17-1.79-2.89-3.7-5.23-3.55-5.78.36-.47 8.46 1.07 10.58 2.77 3.8 6.35 6.98 10.1 9.78q-.15-1.31-.4-2.54a41 41 0 0 0-2.06-7.4m12.28 39.79a9.5 9.5 0 0 0 9.16-6.65c1.26-4.16-.53-8.49-4.04-10.95-3.54-2.47-8.43-2.69-11.66.44q-.16.16-.36.24a10.3 10.3 0 0 0-2.19 10.5 9.8 9.8 0 0 0 9.09 6.42"/><path fill="#24247b" d="M1349.43 447.32q.2-.07.36-.24c3.23-3.12 8.12-2.91 11.66-.44 3.5 2.46 5.3 6.79 4.04 10.95a9.5 9.5 0 0 1-9.16 6.65 9.8 9.8 0 0 1-9.09-6.42 10.3 10.3 0 0 1 2.2-10.5m5.4 19c5.05.63 10.1-2 12.2-6.68a11.9 11.9 0 0 0-3.04-13.73c-3.64-3.29-8.97-4.33-13.22-2.18a1 1 0 0 0-.68.18c-4.21 2.87-6.53 8.1-5.37 13.13a12.1 12.1 0 0 0 10.11 9.28"/><path fill="#f2eeea" d="M1350.1 443.91a1 1 0 0 1 .68-.18c4.25-2.15 9.58-1.1 13.22 2.18a11.9 11.9 0 0 1 3.03 13.73 11.7 11.7 0 0 1-12.19 6.68 12.1 12.1 0 0 1-10.1-9.28c-1.17-5.03 1.15-10.26 5.36-13.13m4.84 27.45q9.72-.07 19.44.08.18-17.03 1.3-34.03l-14.18.75q-.5.69-1.12 1.32a6.8 6.8 0 0 1-6.61 1.84c-1.9-.5-3.63-1.6-5.27-2.78a8 8 0 0 1-2.59 4.58 10.5 10.5 0 0 1-6.86 2.45 15 15 0 0 1-1.39-.07l2.7 26.1q7.28-.18 14.58-.24m18.97 24.12c-.86 1.36-2.71 1.2-4.1 1.23l-5.62.13c-1.43.04-2.93.1-3.78-1.27a.95.95 0 0 1 .04-1.13q.02-.22.2-.44 1.62-2.2 3.37-4.29c1-1.18 2.03-2.75 3.45-3.43 3.18-1.53 5.61 2.18 6.39 4.73.4 1.28.84 3.24.05 4.47m.98-16.75q-18.25-.34-36.52-.22c1.52 3 2.14 6.31 3.07 9.53.81 2.8 1.98 5.75 4.32 7.64 2.6 2.09 6.2 2.32 9.38 2.55 7.14.53 14.32.41 21.44-.32.07-1.46.28-2.96 1.13-4.17a4.4 4.4 0 0 1 3.6-2q.47.02.85.13a107 107 0 0 1-3.46-13.05zm-10.05-103.91c3.57-3.39 2.93-8.97-.67-11.98-.34 2.02-.52 4.3-1.7 6.03-.94 1.38-2.61 2.4-4.32 2.06-2.37-.46-3.1-2.54-3.28-4.73q-.92 2.7-1.8 5.44.25.19.38.54c1.62 4.81 7.83 6.02 11.4 2.64"/><path fill="#f2eeea" d="M1357.12 361.8c-.09 1.73-.38 3.62.08 5.33.42 1.63 1.9 2.26 3.17.9 1.33-1.42 1.4-4.01 1.7-5.83q.6-3.36 1.08-6.74a299 299 0 0 0 3.06-49q-2.77 1.13-5.5 2.34a1549 1549 0 0 0-3.6 53"/><path fill="#24247b" d="M1372.13 494.06c-.29.77-2.3.47-2.97.48l-3.68.1q-.85 0-1.72.04c-.19 0-.6.05-.94.02a83 83 0 0 1 4.04-4.96c.71-.8 1.47-1.98 2.68-1.43.95.43 1.56 1.6 1.94 2.51.33.78.95 2.4.65 3.24m-4.66-7.78c-1.42.68-2.46 2.25-3.45 3.43a89 89 0 0 0-3.38 4.29q-.17.23-.2.44c-.23.3-.3.71-.03 1.13.85 1.36 2.35 1.3 3.78 1.27l5.61-.13c1.4-.04 3.25.13 4.11-1.23.78-1.23.34-3.2-.05-4.47-.78-2.55-3.21-6.26-6.39-4.73"/><path fill="#f2eeea" d="M1369.54 488.3c-1.2-.54-1.97.63-2.68 1.44a83 83 0 0 0-4.04 4.96c.34.03.75-.02.94-.02l1.72-.05 3.68-.09c.67-.01 2.68.29 2.97-.48.3-.84-.32-2.46-.65-3.24-.38-.9-.99-2.08-1.94-2.51m6.01-57.35a44 44 0 0 0-.99-6.08l-11.59.28c.46 1.9.74 3.96.67 5.98q5.96-.3 11.91-.18m-.22-135.56a7 7 0 0 1-6.7-3.26 6.9 6.9 0 0 1 .87-7.94q-1.2-3.6-1.7-7.36c-3.91 2.82-6.38 7.6-5.8 12.52.79 6.72 6.36 12.18 13.21 12.31a14 14 0 0 0 3.11-.28q.98-.2 1.92-.53a39 39 0 0 1-4.91-5.47m4.46 139.63.13-1.74q-8.25-.39-16.5.04-.22 1.35-.7 2.6z"/><path fill="#f2eeea" d="M1373.85 293.26a41 41 0 0 1-3.44-6.58 4.65 4.65 0 0 0 3.44 6.58m1.99 180.38q-.42.14-.83 0-21.55-.35-43.09.39l-.02 2.36q12.07-.15 24.13-.07a1385 1385 0 0 1 83.72 3.04l-.77-.91q-.6-.74-1.16-1.5a845 845 0 0 0-61.98-3.3"/><path fill="#24247b" d="M1387.1 277.3c.17.56.36 1.1.64 1.54.53.82 1.7.94 2.3.13.55-.74.37-1.79.09-2.6a5.6 5.6 0 0 0-1.58-2.37c-.54-.48-1.68-.39-1.82.48a6 6 0 0 0-.02 1.5q.1.69.4 1.33m-9.97-9.27c3.46-2.59 5.32-6.3 7.2-10.02a26 26 0 0 0 10.26 2.3 25.7 25.7 0 0 0 20.22-9.48 32 32 0 0 0 15.86 9.44q.15-1.08.52-2.08a11.4 11.4 0 0 1 3.75-5.13q.95-.75 2.05-1.3a33 33 0 0 0-5.17-14.17c-1.8-2.72-4.06-5.63-7.06-7.08-2.6-1.26-5.9-1.32-8.2.63a6 6 0 0 0-1.79 2.69 36.4 36.4 0 0 0-17.17-10.6c-7.2-2.01-20.93-2.9-21.77 7.47a11 11 0 0 0 1.52 6.43c-3.77-.28-7.61.43-11.12 1.97a30 30 0 0 0-7.99 5.25c-2.31 2.08-4.63 4.53-6.1 7.3a9.9 9.9 0 0 0-.38 8.92c1.32 2.96 3.84 5.15 6.65 6.65a27 27 0 0 0 9.08 3.04 17 17 0 0 0 2.96.1q1.12-.05 2.22-.3 2.37-.5 4.46-2.03m13.31 18.62q5.85.22 11.7-.02c1.4-.06 1.4-2.24 0-2.18q-4.8.21-9.63.09l7.89-10.94c.82-1.13-1.07-2.22-1.88-1.1l-9.02 12.51c-.51.71.19 1.6.94 1.64"/><path fill="#24247b" d="M1370.41 286.68q1.43 3.45 3.44 6.58a4.65 4.65 0 0 1-3.44-6.58m61.33 14.55c4.26-3.94 7.27-8.9 9.37-14.26l-.11-5.76-.2-.26c-1.64 6.03-4.26 11.84-8.43 16.53a34 34 0 0 1-19.65 10.67c-14.56 2.53-29.69-4.07-37.45-16.67a38 38 0 0 1-5.42-15.87q-1.08.53-2.05 1.23.5 3.75 1.7 7.36a6.9 6.9 0 0 0-.87 7.94 6.9 6.9 0 0 0 6.7 3.25q2.2 2.96 4.91 5.47l.53.47a36 36 0 0 0 7.13 4.94c13.96 7.36 32.1 5.81 43.84-5.04"/><path fill="#24247b" d="M1398.66 291.42c-1.39-.17-1.38 2 0 2.18a18.6 18.6 0 0 0 17.4-7.96c.78-1.16-1.1-2.25-1.9-1.1a16.5 16.5 0 0 1-15.5 6.88m8.48-20.32c.16.54.35 1.09.64 1.53.52.81 1.7.94 2.3.13.54-.74.36-1.8.08-2.6a5.6 5.6 0 0 0-1.57-2.37c-.55-.5-1.68-.4-1.82.48a5 5 0 0 0-.02 1.49q.09.69.4 1.33"/><path fill="#f2eeea" d="M1493.08 520.57c-16.02 1.17-32.23-.07-48.12-1.98-17.68-2.14-35.9-5.98-50.16-17.3q-.16-.15-.25-.3a48 48 0 0 1-4.25-.51 11 11 0 0 1-4.35-1.54 7 7 0 0 1-1.43-1.35 1 1 0 0 1-.5-.57l-.07-.2-.62-.96c-.64-1.04-1.53-2.48-2.95-1.7-1.63.88-1.61 3.13-1.65 4.73-.02.64-.5 1.02-1.09 1.08q-6.72.75-13.5.77c-3.89 0-7.82-.12-11.7-.57-3.22-.37-6.45-1.17-8.84-3.51-4.92-4.81-4.3-12.33-7.61-17.98l-.08-.16-4.6.05a1 1 0 0 1-1-.72 1 1 0 0 1-.6-.95l.04-3.7a1 1 0 0 1 .66-.97c.18-.2.44-.35.78-.36l6.99-.21-2.73-26.53q-1.07-.26-2.11-.62-.29 1.12-.79 2.22a10.2 10.2 0 0 1-6.55 5.72 2373 2373 0 0 0 1.06 108.16h164.99q.2-20.03 1.03-40.04"/><path fill="#f2eeea" d="M1380.93 478.87a106 106 0 0 0 5 17.05q.42.58.97 1.03c1.25.98 2.93 1.28 4.46 1.5 1.84.27 3.7.5 5.56.5 3.19 0 7.04-1.05 8.28-4.36q1.53-5.96 3.55-11.77.08-.22.2-.36a.9.9 0 0 1 .98-.62q13.55.63 27.03 2.11.48-1.29 1.22-2.52-9.87-.64-19.73-1.15-18.75-.96-37.52-1.41m-13.27-144.74a300 300 0 0 1-2.57 22.96 1487 1487 0 0 0 84.2 1.46l5.1-59.8a759 759 0 0 0-7.92-4.11c-1.45 6.6-3.68 13.05-7.22 18.83-3.61 5.88-8.66 10.97-14.8 14.18a29 29 0 0 1-20.36 2.59c-13.71-3.28-22.93-14.83-27.61-27.56q-4.1 1.35-8.1 2.92.3 14.28-.72 28.52"/><path fill="#f2eeea" d="M1407.3 328.64c6.63.93 13.22-.86 18.79-4.48 6.2-4.04 10.55-9.76 13.62-16.21v-.15q.83-7.88 1.63-15.76l-.14-.08-.1-4.99c-2.1 5.36-5.1 10.32-9.37 14.26-11.74 10.85-29.87 12.4-43.83 5.04a36 36 0 0 1-7.13-4.94q-1.12.33-2.23.69c2.33 6.4 5.76 12.43 10.6 17.26 4.89 4.88 11.27 8.4 18.16 9.36"/><path fill="#24247b" d="M1404.1 330.24a29 29 0 0 0 20.34-2.6c6.15-3.2 11.2-8.3 14.8-14.17 3.55-5.78 5.78-12.23 7.23-18.83l-1.33-.68-.68-.35-1.05-.53-2.07-1.04-1.62 15.76v.15c-3.08 6.45-7.43 12.18-13.63 16.21-5.57 3.62-12.16 5.41-18.79 4.48-6.89-.96-13.27-4.48-18.16-9.36-4.85-4.83-8.27-10.87-10.6-17.26q-1.04.32-2.06.67c4.68 12.72 13.9 24.27 27.61 27.55"/><path fill="#f2eeea" d="M1386.67 275.54q-.02-.51.07-1.06c.13-.87 1.27-.96 1.81-.48a5.6 5.6 0 0 1 1.58 2.38c.28.8.46 1.86-.08 2.6-.6.8-1.78.68-2.3-.14a6 6 0 0 1-.64-1.53 5 5 0 0 1-.44-1.77m11.86-3.02c.81-1.13 2.7-.04 1.88 1.1l-7.89 10.93q4.82.11 9.64-.09c1.4-.06 1.4 2.12 0 2.18q-5.85.24-11.71.02c-.75-.03-1.45-.93-.94-1.64zm8.18-3.2q-.03-.52.06-1.05c.14-.87 1.27-.97 1.82-.48a5.6 5.6 0 0 1 1.57 2.37c.28.8.46 1.86-.08 2.6-.6.8-1.78.68-2.3-.13a6 6 0 0 1-.64-1.54 5 5 0 0 1-.43-1.77m7.46 15.22c.79-1.15 2.67-.06 1.88 1.1a18.6 18.6 0 0 1-17.4 7.96c-1.37-.17-1.38-2.35 0-2.18a16.5 16.5 0 0 0 15.52-6.88m21.7-21.27c1.5-4.45 7.4-5.4 10.35-1.81 3.13 3.81 1.24 9.34-3.12 11.22-1.27.55-2.38-1.32-1.1-1.88 2.9-1.25 4.75-4.62 2.87-7.52-1.66-2.56-5.85-2.56-6.9.57-.45 1.32-2.55.75-2.1-.58m-23.15 44.88a34 34 0 0 0 19.65-10.67c4.17-4.7 6.79-10.5 8.44-16.53l.19.26c.86.13 1.83.11 2.58.07l.18-.02.39-.03.27-.03.47-.06c6.44-.96 12.07-6 13.01-12.82.62-4.5-.66-9.22-3.68-12.65a15.3 15.3 0 0 0-13.58-5.06 12 12 0 0 0-5.7 2.46 11.4 11.4 0 0 0-3.74 5.13 11 11 0 0 0-.52 2.08 32 32 0 0 1-15.86-9.44 25.7 25.7 0 0 1-20.21 9.48 26 26 0 0 1-10.27-2.3c-1.89 3.71-3.74 7.43-7.2 10.02a12 12 0 0 1-4.47 2.03q-1.09.25-2.2.3a37 37 0 0 0-.17 5.03l-.45.21a38 38 0 0 0 5.42 15.87c7.76 12.6 22.89 19.2 37.45 16.67m-50.06 114.83 12.63-.3a1 1 0 0 1 .7.24q.36.17.5.66a48 48 0 0 1 1.25 7.43l3.1.13q.39.03.63.23c.42.1.74.44.7 1l-.24 3.16q-.03.27-.14.47c0 .55-.36 1.1-1.05 1.14l-2.88.16a620 620 0 0 0-1.3 34.18q8.37.14 16.75.47l-.33-25.2-.07-1.05-1.4.09a.9.9 0 0 1-1-.68.95.95 0 0 1-.64-.98l.12-3.27c.02-.5.32-.82.69-.96.15-.35.46-.62.93-.66l2.98-.24.39-5.54q.02-.33.18-.55c.06-.5.41-.93 1.04-.93l40.07.3c.67 0 1.02.5 1.05 1.01q.15.24.16.6l-.1 4.78 4.12.27c.6.04.95.49 1.03.97q.18.18.23.45l.44 3.16q.06.44-.11.81c-.02.53-.37 1.03-1.05 1q-1.83-.1-3.65-.16.02.12.01.27l-.86 16.47c.9-.46 1.9-.79 2.91-.95 4.29-.66 8.51.94 12.3 2.8a128 128 0 0 1 16.97 10.11 170 170 0 0 1 15.53-35.53 763 763 0 0 1-22.64-65.72 11 11 0 0 1-.93 3.11c-2.74 5.82-10.82 7.9-15.6 3.31a8.9 8.9 0 0 1-2.6-8.51c.72-2.94 2.88-5.23 5.29-6.96.07-.97.2-1.93.3-2.84q-9 .1-18 .09-33.16-.05-66.31-1.57l-.2 1.19c5.43 3.63 6.69 11.6 1.6 16.12a9.1 9.1 0 0 1-8.52 2.12 9.3 9.3 0 0 1-5.5-4.19 420 420 0 0 0-7.07 25.02 52 52 0 0 1 10.23 10.28 46 46 0 0 1 7.06 13.24q.15-.04.3-.05"/><path fill="#f2eeea" d="M1427.33 465.9a11.7 11.7 0 0 1-12.19 6.68 12.1 12.1 0 0 1-10.1-9.27c-1.16-5.03 1.15-10.26 5.36-13.13a1 1 0 0 1 .69-.18c4.25-2.16 9.57-1.1 13.2 2.18a11.9 11.9 0 0 1 3.04 13.72m-32.15-20.34v2.52l.3 23.95q20.44.82 40.81 2.61-.36-.62-.69-1.26c-.9-1.78-1.77-3.83-1.78-5.85a5.7 5.7 0 0 1 1.5-3.92q-.03-.15-.03-.32l.94-17.85q0-.19.07-.35-20.57-.73-41.12.47m40.02-7.01.1-4.1q-19.1-.16-38.2-.28l-.33 4.68q19.21-1.3 38.44-.3m5.47 2.51a322 322 0 0 0-48.53.31l-.08 2.2a437 437 0 0 1 48.9-.47z"/><path fill="#f2eeea" d="M1410.1 453.34q-.18.18-.36.24a10.3 10.3 0 0 0-2.2 10.5 9.8 9.8 0 0 0 9.09 6.43c4.2 0 7.93-2.62 9.16-6.65 1.27-4.16-.53-8.49-4.04-10.95-3.54-2.47-8.43-2.69-11.65.43"/><path fill="#24247b" d="M1425.79 463.86a9.5 9.5 0 0 1-9.16 6.65 9.8 9.8 0 0 1-9.09-6.43 10.3 10.3 0 0 1 2.2-10.5q.18-.07.36-.24c3.22-3.12 8.11-2.9 11.65-.43 3.5 2.46 5.3 6.79 4.04 10.95m-14.7-13.86a1 1 0 0 0-.69.18c-4.21 2.87-6.53 8.1-5.36 13.13a12.1 12.1 0 0 0 10.1 9.27 11.7 11.7 0 0 0 12.2-6.68 11.9 11.9 0 0 0-3.04-13.72c-3.64-3.29-8.96-4.34-13.21-2.18"/><path fill="#f2eeea" d="M1407.39 494.82c.56 1.4 1.23 3 2.58 3.79 1.56.92 3.73.73 5.47.8 3.5.18 7.04.52 10.54.45 3.08-.08 5.5-1.28 7.08-3.97 1.78-3.02 2.26-6.52 3.2-9.83q-12.78-1.4-25.63-2-1.83 5.32-3.24 10.76"/><path fill="#24247b" d="M1322.14 434.2a32 32 0 0 1-4.03-5.47c-1.02-1.74-2.15-3.71-2.3-5.77-.05-.93.1-1.98.9-2.57.99-.72 2.34-.51 3.36-.02 2.16 1.03 3.96 3.22 5.36 5.1 2.94 3.96 5.61 9.03 6.1 14q.1.9.06 1.86a32 32 0 0 1-9.45-7.12m16.91 11.36c2.49 0 4.97-.81 6.86-2.45a8 8 0 0 0 2.6-4.58c1.63 1.17 3.36 2.29 5.26 2.78a6.8 6.8 0 0 0 6.6-1.84 10 10 0 0 0 1.12-1.32l14.19-.75a618 618 0 0 0-1.3 34.03 827 827 0 0 0-34.03.16l-2.69-26.1a15 15 0 0 0 1.4.07m16.24-35.78a53 53 0 0 0-10.23-10.28 420 420 0 0 1 7.08-25.01 9.3 9.3 0 0 0 5.49 4.18 9.1 9.1 0 0 0 8.52-2.12c5.09-4.52 3.83-12.49-1.6-16.12l.2-1.19a1502 1502 0 0 0 84.3 1.48q-.16 1.38-.3 2.84c-2.4 1.73-4.56 4.02-5.28 6.96a9 9 0 0 0 2.6 8.51c4.78 4.6 12.86 2.51 15.6-3.31q.7-1.5.93-3.1a765 765 0 0 0 22.64 65.71 172 172 0 0 0-15.53 35.53q-2.86-2.06-5.86-3.92-5.4-3.38-11.12-6.2c-3.78-1.85-8-3.45-12.29-2.79-1 .16-2 .48-2.9.95l.85-16.47-.01-.27 3.65.16c.68.03 1.03-.47 1.05-1q.17-.37.1-.81l-.43-3.16a1 1 0 0 0-.23-.45 1.1 1.1 0 0 0-1.03-.97q-2.06-.15-4.12-.27l.1-4.78q0-.36-.16-.6c-.03-.52-.38-1.01-1.05-1.02l-40.07-.29a1 1 0 0 0-1.04.92q-.16.23-.18.56l-.4 5.54-2.97.24c-.47.04-.78.31-.93.66-.37.14-.67.46-.69.96l-.12 3.27c-.02.52.27.85.64.98.11.4.44.71 1 .68l1.4-.1.07 1.06.32 25.2a855 855 0 0 0-16.75-.47q.2-17.1 1.3-34.18l2.89-.16c.7-.03 1.05-.6 1.05-1.14q.1-.2.14-.47l.24-3.15c.04-.57-.28-.9-.7-1.01a1 1 0 0 0-.63-.23q-1.55-.08-3.1-.13-.33-3.76-1.25-7.43a1 1 0 0 0-.5-.66 1 1 0 0 0-.7-.23l-12.63.3q-.15 0-.3.04a46 46 0 0 0-7.06-13.24m-.43-43.6c.18 2.2.91 4.28 3.28 4.74 1.7.33 3.38-.68 4.32-2.06 1.18-1.73 1.36-4.01 1.7-6.03 3.6 3 4.24 8.59.67 11.98-3.56 3.38-9.77 2.17-11.4-2.64a1 1 0 0 0-.37-.54q.88-2.72 1.8-5.44m96.9 6.52a4.7 4.7 0 0 0 5.56-.42c1.55-1.26 2.24-3.13 2.56-5.04a9.4 9.4 0 0 1-.75 8.54 8.2 8.2 0 0 1-7.96 3.54 7.2 7.2 0 0 1-5.77-6.33c-.2-2.65 1.35-4.9 3.28-6.62.11 2.55.83 4.9 3.08 6.33m-55 66.13.34-4.68 38.18.27-.09 4.11a322 322 0 0 0-38.43.3m-4.7 4.72.08-2.2a322 322 0 0 1 48.53-.3l.28 2.03a437 437 0 0 0-48.9.47m44.17 1.87-.94 17.85q0 .18.03.32a5.7 5.7 0 0 0-1.5 3.92c.01 2.02.88 4.07 1.78 5.85q.33.65.69 1.26a858 858 0 0 0-40.8-2.62l-.31-23.94v-2.52q20.55-1.2 41.12-.47-.07.15-.07.35m-72.8-12.12q8.25-.43 16.5-.04l-.14 1.74-17.08.9q.49-1.25.72-2.6m-.46-8.16 11.6-.28q.7 3 .98 6.08-5.95-.13-11.9.18c.06-2.02-.21-4.08-.68-5.98m74.85 51.8a40 40 0 0 0 1.93 2.4 1377 1377 0 0 0-107.85-2.97l.02-2.36q21.54-.75 43.1-.4.4.15.82.01a848 848 0 0 1 61.98 3.31m-.87 7q-13.48-1.49-27.02-2.1a.9.9 0 0 0-.98.6q-.12.16-.2.37-2.01 5.81-3.55 11.77c-1.24 3.3-5.1 4.36-8.27 4.36-1.86 0-3.73-.23-5.57-.5-1.53-.22-3.2-.52-4.46-1.5a6 6 0 0 1-.97-1.03 106 106 0 0 1-5-17.05 1382 1382 0 0 1 57.25 2.56q-.74 1.22-1.23 2.52m-3.89 11.94c-1.58 2.7-4 3.9-7.08 3.97-3.5.07-7.04-.27-10.54-.44-1.74-.08-3.9.1-5.47-.81-1.35-.8-2.02-2.38-2.58-3.79q1.42-5.44 3.24-10.77 12.84.62 25.63 2c-.94 3.32-1.42 6.82-3.2 9.84m-51.75-4.14a4.4 4.4 0 0 0-3.6 1.99c-.85 1.2-1.06 2.7-1.13 4.17-7.12.73-14.3.85-21.44.32-3.19-.23-6.79-.46-9.38-2.55-2.34-1.9-3.5-4.83-4.32-7.63-.93-3.23-1.55-6.54-3.07-9.54q18.27-.13 36.52.22l3.8.09a107 107 0 0 0 3.47 13.05 4 4 0 0 0-.85-.12m-44.9-67.14c-1.54-2.12-6.85-10.22-1.07-10.58 2.34-.15 4.06 1.76 5.23 3.55a36 36 0 0 1 3.48 6.86 41 41 0 0 1 2.46 9.95c-3.75-2.8-7.33-5.98-10.1-9.78m116.1 58.95a18 18 0 0 1 5.6 4.38q.2.24.36.51c.17.3.07.14.03.14.08 0-.4-.14-.42-.14-.29-.06-.61-.06-.9-.1-4.66-.66-8.82-3.4-12.32-6.72 2.65.08 5.26.73 7.64 1.93m-119.95-36.83q.5-1.1.79-2.22a20 20 0 0 0 2.1.62l2.74 26.53-6.99.21q-.51.03-.78.36a1 1 0 0 0-.66.97l-.03 3.7c0 .49.25.8.6.95.11.4.45.73.99.72l4.6-.04.08.15c3.32 5.65 2.69 13.17 7.6 17.98 2.4 2.34 5.63 3.14 8.86 3.51 3.87.45 7.8.57 11.7.57q6.76-.01 13.5-.77c.58-.06 1.06-.44 1.08-1.08.04-1.6.02-3.85 1.64-4.74 1.43-.77 2.32.67 2.96 1.7q.3.5.62.97l.07.2q.18.4.5.57.59.76 1.42 1.35a11 11 0 0 0 4.36 1.54c1.31.21 2.77.41 4.25.52q.1.16.25.28c14.26 11.33 32.48 15.17 50.16 17.3 15.9 1.92 32.1 3.17 48.12 2q-.84 20-1.03 40.03h2.17a1279 1279 0 0 1 1.05-40.2 142 142 0 0 0 15.75-2.27l.05-1.92q1.16-.4 2.3-.83c-10.73 2.48-21.85 3.44-32.85 3.44-10.57 0-21.13-.84-31.63-1.97-8.75-.95-17.5-2.2-26-4.48-8.85-2.37-17.46-5.92-24.87-11.36 3.23-.22 6.27-1.18 8.14-3.73 1.11 2.06 2.64 3.65 5.3 4.04 1.8.26 3.66.25 5.48.34l6.21.3c3.39.15 6.81.11 9.53-2.2 2.22-1.88 3.42-4.78 4.2-7.52 1-3.6 1.36-7.65 3.8-10.65l1.19.08a41 41 0 0 0 5.82 4.97c3.08 2.15 7.06 4.09 10.91 4 2.35-.06 2.54-2.33 1.35-3.88a20.4 20.4 0 0 0-17.03-7.27l-.14.01a52 52 0 0 1-3.13-3.73 1.2 1.2 0 0 0-.57-.8 24 24 0 0 1-1.52-2.54c-.8-1.56-1.69-3.5-1.56-5.3.25-3.32 4.4-4.26 7.08-4.14 3.86.18 7.46 2.02 10.81 3.78a142 142 0 0 1 9.18 5.24 98 98 0 0 1 6.72 4.6 72 72 0 0 1 11.69 10.83c.9 1.07 2.44-.47 1.54-1.54a73 73 0 0 0-11.44-10.67 171 171 0 0 1 18.3-40.44c10.42 2.29 19.96 7.23 29.45 11.96 9.9 4.94 19.78 9.9 29.39 15.37q5.08 2.87 10.03 5.97l.72-2.1a347 347 0 0 0-22.68-12.82c-9.76-5.1-19.58-10.22-29.63-14.72a88 88 0 0 0-16.05-5.62 170 170 0 0 1 20.14-25.64c.97-1.01-.57-2.56-1.54-1.54a173 173 0 0 0-23.07 30.3 767 767 0 0 1-25.54-76.56 1 1 0 0 0-.34-.55c.23-2.96.42-5.94.67-8.88l1.44-17.06 2.4-28.25-2.09-1.16-4.66 55.1c-.22 2.59-.35 5.2-.68 7.77-.24 1.9-1.04 4.65-3.34 4.9-2.4.27-3.48-2.64-3.59-4.54q-.06-1.05 0-2.11c.18-.32.18-.69.05-1 .12-1.5.32-2.99.44-4.45l2.75-32.1 2.32-27.21-2.08-1.11-5.11 59.8a1505 1505 0 0 1-84.2-1.46 300 300 0 0 0 3.3-51.5l-2.17.87a299 299 0 0 1-4.13 55.74c-.31 1.82-.38 4.4-1.7 5.83-1.28 1.36-2.75.73-3.18-.9-.46-1.7-.17-3.6-.08-5.34a1496 1496 0 0 1 3.58-52.99l-2.26 1.04a1529 1529 0 0 0-3.4 50.21q-.38.16-.56.63a420 420 0 0 0-11.31 37.45 50 50 0 0 0-12.07-6.13 51 51 0 0 0-25.38-1.94l-.1-.09a422 422 0 0 1-19.97-18.03q-.63.9-1.23 1.83 9.05 8.69 18.6 16.84a51 51 0 0 0-12.65 4.76c-1.24.67-.14 2.54 1.1 1.88 17.03-9.14 38.57-7.25 53.58 4.98 6.86 5.59 12.59 13.18 15.3 21.67 1.42 4.4 2.13 10.46-1.51 14.04-1.84 1.8-4.13 1.71-6.3.54a35 35 0 0 1-3.8-2.43v-.15c-.08-5.8-2.08-11.79-4.78-16.85-1.24-2.32-2.68-4.78-4.96-6.2-1.86-1.17-4.42-1.42-6.33-.22-4.94 3.1-.3 10.16 2.07 13.36 3.26 4.38 7.4 7.95 11.82 11.13a8 8 0 0 1-.6 2.39c-2.13 4.72-8.15 4.3-12.25 2.75.34-4.05-1.04-8.2-2.82-11.88a38 38 0 0 0-4.42-7.1c-1.63-2.05-3.68-4.29-6.2-5.19-2.27-.8-5.02-.16-6.13 2.11-1.03 2.1-.35 4.64.55 6.66a33.6 33.6 0 0 0 9.48 12.24 35 35 0 0 0 7.1 4.56c-.66 2.94-2.38 5.63-5.35 6.64-4.7 1.6-9.6-2.08-12.98-4.96a42.5 42.5 0 0 1-11.93-16.8c-.5-1.3-2.61-.74-2.1.57a45 45 0 0 0 8.4 13.76c3.46 3.88 7.96 7.93 13.03 9.46a10.3 10.3 0 0 0 5.66.12c2.8-.77 5.2-2.79 6.55-5.72"/><path fill="#24247b" d="M1445.82 393.92q.14.66-.22 1.62-.37.97-.85 2.1-.47 1.15-.78 2.41a5.6 5.6 0 0 0 .55 4.01q.37.64.77 1.13l.71.91q.31.43.42.88.13.57-.06.97-.2.4-.51.63-.32.23-.69.37l-.6.18a3.6 3.6 0 0 1-3.3-.77 6 6 0 0 1-1.09-1.16l-.87-1.21a5 5 0 0 0-.84-.9q-.42-.34-.93-.23-.75.18-1.28.74-.55.55-.94 1.33-.39.75-.69 1.61-.3.85-.6 1.6-.3.74-.66 1.28t-.87.65a3 3 0 0 1-1.9-.19q-.45-.2-.78-.57a2 2 0 0 1-.45-.86q-.12-.5-.1-1.75.04-1.24.17-2.92t.34-3.67a238 238 0 0 1 1-8.05 154 154 0 0 1 1.03-6.33q.23-1.16.39-1.53.15-.94.83-1.36.67-.4 1.27-.54.48-.1.96-.16.5-.04.9.03t.72.3.4.68q.27 1.16.3 2.75.01 1.6-.03 3.2l-.08 3.01q-.02 1.4.16 2.18.19.8.72.67.68-.15 1.26-.8.57-.65 1.1-1.4t1.04-1.38 1.08-.77q.33-.08.8-.03.49.04.95.22.47.18.81.46t.44.66m-7.85-130.07c1.05-3.13 5.24-3.13 6.9-.57 1.88 2.9.04 6.27-2.87 7.52-1.28.55-.17 2.43 1.1 1.88 4.36-1.88 6.25-7.4 3.12-11.22-2.94-3.6-8.85-2.64-10.35 1.81-.45 1.33 1.65 1.9 2.1.58"/><path fill="#f2eeea" d="M1458.08 488.45c.02 0 .5.14.42.14.04 0 .14.16-.03-.14-.1-.2-.23-.34-.36-.51q-.76-.91-1.66-1.7a18 18 0 0 0-11.59-4.61c3.5 3.31 7.66 6.06 12.32 6.72.29.04.61.04.9.1M1445.4 373a7.2 7.2 0 0 0 5.78 6.34 8.2 8.2 0 0 0 7.96-3.54 9.4 9.4 0 0 0 .75-8.55c-.32 1.92-1 3.79-2.56 5.05a4.7 4.7 0 0 1-5.56.42c-2.25-1.43-2.97-3.78-3.08-6.33-1.93 1.72-3.48 3.97-3.28 6.62"/><path fill="#f2eeea" d="M1451.4 359.17c-.12 1.46-.32 2.95-.44 4.44.13.32.13.7-.06 1q-.05 1.07.01 2.12c.11 1.9 1.19 4.8 3.59 4.54 2.3-.25 3.1-3 3.34-4.9.33-2.57.46-5.18.68-7.77l4.66-55.1a556 556 0 0 0-6.7-3.64l-2.33 27.2zm67.93 87.59c-9.49-4.73-19.03-9.67-29.45-11.96a170 170 0 0 0-18.3 40.44 73 73 0 0 1 11.44 10.67c.9 1.06-.63 2.61-1.54 1.54a72 72 0 0 0-12.05-11.1 98 98 0 0 0-6.36-4.33q-4.5-2.8-9.18-5.24c-3.35-1.76-6.95-3.6-10.8-3.78-2.7-.12-6.84.82-7.09 4.15-.13 1.8.76 3.73 1.56 5.3q.7 1.3 1.52 2.53c.32.17.5.48.57.8q.42.57.87 1.13 1.06 1.3 2.26 2.6l.13-.01a20.4 20.4 0 0 1 17.04 7.27c1.2 1.55 1 3.82-1.35 3.88-3.85.09-7.83-1.85-10.9-4a41 41 0 0 1-5.83-4.97l-1.18-.08c-2.45 3-2.81 7.04-3.82 10.65-.77 2.74-1.97 5.64-4.2 7.53-2.7 2.3-6.13 2.34-9.52 2.18l-6.2-.3c-1.83-.08-3.69-.07-5.5-.33-2.65-.39-4.18-1.98-5.29-4.05-1.87 2.56-4.91 3.52-8.14 3.74 7.4 5.44 16.02 8.99 24.87 11.36 8.5 2.28 17.25 3.53 26 4.48a295 295 0 0 0 31.63 1.97c11 0 22.12-.96 32.85-3.44a77 77 0 0 0 27.78-18.57 80 80 0 0 0 17.6-28.72q-4.96-3.09-10.03-5.97a612 612 0 0 0-29.39-15.37m-8.31 71.38q-1.72.36-3.46.66-6.12 1.07-12.3 1.6-.3 7.12-.52 14.25-.39 12.97-.52 25.96h15.6l1.2-42.18z"/><path fill="#f2eeea" d="M1461.43 349.97c-.25 2.94-.44 5.92-.67 8.88q.24.19.34.55a767 767 0 0 0 25.54 76.57 173 173 0 0 1 23.07-30.31c.97-1.02 2.51.53 1.54 1.54a170 170 0 0 0-20.14 25.64 88 88 0 0 1 16.05 5.62c10.05 4.5 19.87 9.63 29.63 14.72 7.7 4.02 15.3 8.23 22.68 12.81a93 93 0 0 0 4.54-25.6c.82-21.93-5.53-43.55-16.6-62.37-10.8-18.38-25.74-34.11-42.43-47.28-12.46-9.83-25.88-18.32-39.72-26.08l-2.39 28.25z"/></svg>